<?xml version='1.0' encoding='utf-8'?>
<svg xmlns="http://www.w3.org/2000/svg" width="1e3" height="1e3" version="1.1" viewBox="0 0 264.58 264.58"> <g transform="translate(0 -32.417)"> <circle cx="133.21" cy="165.66" r="113.38" fill="#2c5aa0"/> <path transform="matrix(.26458 0 0 .26458 0 32.417)" d="m641.49 193.52-91.363 39.977-57.982 39.598-35.355 131.52-91.363 101.39 109.54 109.54-68.318 210.62 105.64 105.64a428.51 428.51 0 0 0 419.68-428.19 428.51 428.51 0 0 0-0.72071-20.338l-289.75-289.75z" opacity=".2"/> <g transform="matrix(.86679 0 0 .86679 17.745 8.4889)" aria-label="f"> <path d="m140.52 279.79h-36.867q2.0482-15.215 2.0482-33.063v-65.834q-3.5111 0-7.9 0.58518-4.3889 0.2926-6.7297 0.58519v-31.015h14.63q0-31.308 7.9-46.815 10.826-21.359 39.5-21.359 11.704 0 22.237 3.8037v30.137q-4.9741-2.6333-9.363-4.0963-4.0963-1.463-8.4852-1.463-11.996 0-16.093 10.533-2.6334 6.7296-2.6334 20.774v8.4852h31.015v31.015q-14.922-1.7556-29.552-1.7556h-1.463q0 8.1926-0.29259 25.456-0.29259 17.263-0.29259 26.333 0 16.093 0.29259 25.748t2.0482 21.945z" fill="#fff" stroke-width=".30525"/> </g> </g> </svg>